<svg width="45" height="72" viewBox="0 0 45 72" fill="none" xmlns="http://www.w3.org/2000/svg">
<g clip-path="url(#clip0_24_96)">
<path d="M43.941 37.9889C43.8533 37.7432 43.7491 37.5036 43.629 37.2719L43.644 37.305C43.206 36.282 39.684 29.478 39.096 28.5509L22.743 -3.00305L5.973 29.3249C5.403 30.2549 2.277 36.285 1.845 37.305L1.674 37.6829C0.558669 40.4013 -0.0101628 43.3127 -3.61387e-06 46.2509C-3.61387e-06 52.2836 2.39644 58.0691 6.66215 62.3348C10.9278 66.6005 16.7134 68.9969 22.746 68.9969C28.7786 68.9969 34.5641 66.6005 38.8298 62.3348C43.0955 58.0691 45.492 52.2836 45.492 46.2509V46.2329L45.495 45.9299C45.495 43.0649 44.925 40.332 43.89 37.8419L43.941 37.9829V37.9889ZM22.755 63.0539C19.8452 63.0546 16.9855 62.2974 14.4572 60.857C11.929 59.4166 9.81946 57.3426 8.33631 54.8392C6.85316 52.3358 6.04753 49.4893 5.99873 46.58C5.94993 43.6706 6.65964 40.7987 8.058 38.2469L8.013 38.334C7.79325 39.5021 7.68277 40.6883 7.683 41.8769V41.88C7.68618 47.2066 9.8036 52.3143 13.5701 56.0808C17.3367 59.8473 22.4443 61.9648 27.771 61.9679C28.11 61.9679 28.473 61.9679 28.809 61.9499C26.8916 62.6868 24.8541 63.0611 22.8 63.0539H22.731H22.734H22.755Z" fill="#41D399"/>
</g>
<defs>
<clipPath id="clip0_24_96">
<rect width="45" height="72" fill="white"/>
</clipPath>
</defs>
</svg>
